<svg width="22" height="23" viewBox="0 0 22 23" fill="none" xmlns="http://www.w3.org/2000/svg">
<path d="M21.9565 3.25837C22.0101 2.56802 21.9991 0.761333 21.9991 0.0596513C21.9991 0.0596513 17.7379 0.0450231 17.0558 0.0171823C15.6786 -0.039443 14.2819 0.0622467 12.9116 0.0596513C11.9386 0.0577638 10.9805 0.0872562 9.99666 0.0596513C9.37476 0.0419559 0.0137705 0.145297 0.0137705 0.145297C-0.00363509 0.756378 0.0761012 7.96323 0.0177691 9.45318C-0.0464432 11.0941 0.08598 17.3116 0.0603421 18.7277C0.045759 19.5374 0.14196 21.0063 0.0412901 21.8629L0.0603421 22.2381C3.20792 22.2381 7.31173 22.3034 10.5242 22.281C10.5106 21.0145 10.5722 18.8695 10.5176 17.1993C10.5064 16.8562 10.4948 13.2431 10.4551 13.0529C10.4551 13.0529 8.93351 13.0635 8.23964 13.0675C8.23964 13.0675 8.19307 11.734 8.19307 11.2834C8.19307 10.8403 8.19307 10.3976 8.19307 9.95455C8.19307 9.95455 9.96279 9.85829 10.4603 9.81464C10.4603 9.81464 10.5296 8.12343 10.5988 7.57534C10.6778 6.9494 10.695 6.31708 11.0617 5.76286C11.733 4.74951 12.4 3.85624 13.6344 3.58656C14.1011 3.48464 17.1821 2.87733 17.2966 3.37658L17.2275 6.38433C16.3901 6.38433 15.3877 6.29868 14.5334 6.93571C14.0576 7.2908 13.927 7.58667 13.8786 8.16991C13.8503 8.50966 13.8435 9.88424 13.8435 9.88424C14.2947 9.94912 14.9624 9.92058 15.4472 9.88424C15.9952 9.84342 17.4013 9.98923 17.4013 9.98923C17.4013 10.8988 17.3651 12.9998 17.3684 13.0892C16.8083 13.08 16.2965 13.0965 15.6457 13.0682C15.5401 13.0633 13.8452 13.0888 13.8501 13.1194C13.9731 13.8759 13.7962 14.679 13.8068 15.4437C13.8129 15.8894 13.9437 20.7635 13.8837 22.2499C14.6331 22.2435 15.3848 22.2381 16.1495 22.2381C17.0515 22.2381 21.0676 22.2386 21.9661 22.2381C21.9661 22.2381 21.8163 5.06897 21.9565 3.25837Z" fill="#333235"/>
</svg>
