<svg width="30" height="30" viewBox="0 0 30 30" fill="none" xmlns="http://www.w3.org/2000/svg">
<path d="M0 -0.00012207V29.9999H30V-0.00012207H0ZM23.5775 11.5461C23.8375 17.3174 19.5337 23.7524 11.915 23.7524C9.5975 23.7524 7.44125 23.0736 5.625 21.9086C7.8025 22.1649 9.975 21.5611 11.7 20.2099C9.90375 20.1761 8.38875 18.9899 7.8675 17.3599C8.51125 17.4824 9.14375 17.4461 9.72 17.2899C7.74625 16.8936 6.385 15.1161 6.42875 13.2149C6.98125 13.5224 7.615 13.7074 8.28625 13.7286C6.46 12.5074 5.9425 10.0949 7.01625 8.24988C9.04 10.7324 12.0637 12.3661 15.4737 12.5374C14.875 9.97113 16.8225 7.49988 19.4712 7.49988C20.6512 7.49988 21.7175 7.99738 22.4662 8.79613C23.4012 8.61238 24.28 8.27113 25.0725 7.80113C24.7663 8.75988 24.115 9.56363 23.2687 10.0711C24.0987 9.97113 24.89 9.75113 25.625 9.42488C25.075 10.2449 24.3787 10.9674 23.5775 11.5461Z" fill="#FC691B"/>
</svg>
