<svg width="22" height="23" viewBox="0 0 22 23" fill="none" xmlns="http://www.w3.org/2000/svg">
<path d="M21.9411 9.20686C21.9383 7.81874 22.039 6.40392 21.9831 5.00865C21.9558 4.31793 21.9411 0.00119849 21.9411 0.00119849C21.2482 0.00119849 19.4647 -0.00999997 18.7835 0.0443242C16.9961 0.186568 0.0475396 0.0350319 0.0475396 0.0350319C0.0468409 0.944961 0.0475396 5.01342 0.0475396 5.92716C0.0475396 7.83375 0.0191244 9.66552 0.00514978 11.558C-0.0186071 14.8335 0.0475396 19.0144 0.0475396 22.2247L0.417635 22.244C1.26333 22.1421 2.71331 22.2395 3.51266 22.2247C4.91059 22.1988 11.0483 22.3332 12.6684 22.2679C14.1388 22.2088 21.2536 22.2898 21.8566 22.2719C21.8566 22.2719 21.9586 12.7894 21.9414 12.1597C21.9139 11.163 21.943 10.1926 21.9411 9.20686ZM17.9471 15.539C17.4221 15.8751 15.2882 15.9752 14.7713 15.5911C14.4881 15.3805 14.2294 15.117 13.9829 14.8663C13.8108 14.691 13.6154 14.6059 13.4677 14.4155C13.3466 14.2597 13.2642 14.076 13.1368 13.9226C12.9223 13.6645 12.592 13.4451 12.3304 13.7603C11.9373 14.2342 12.3926 15.1658 11.8676 15.5199C11.6918 15.6388 11.5141 15.6731 11.2942 15.6562L10.8072 15.6791C10.5212 15.6848 10.0677 15.6874 9.74233 15.6271C9.37945 15.5602 9.07946 15.3574 8.75129 15.2082C8.12802 14.9254 7.5341 14.5404 7.08272 14.0067C5.85318 12.5533 4.20137 10.5542 3.5597 8.72676C3.42811 8.35126 3.07944 7.60835 3.40971 7.28574C3.85899 6.95193 6.06466 6.85758 6.4089 7.37414C6.54865 7.58381 6.63692 7.89141 6.73545 8.12919C6.85842 8.42583 6.92504 8.70531 7.11765 8.96812C7.28814 9.2009 7.41368 9.43512 7.54574 9.69054C7.69341 9.97693 7.83316 10.2519 8.01296 10.5159C8.13501 10.6953 8.45782 11.052 8.66162 11.0787C9.15958 11.1437 9.12861 9.90593 9.09181 9.60381C9.0564 9.31265 9.04732 9.00362 9.05664 8.70841C9.06456 8.45657 9.08692 8.10155 8.94111 7.89569C8.70331 7.56022 8.17367 7.81135 8.13221 7.36055C8.22002 7.23237 8.20115 7.11895 8.78553 6.92215C9.24553 6.76728 9.54272 6.77228 9.84621 6.79706C10.4646 6.84781 11.1207 6.6765 11.7172 6.88164C12.2876 7.07821 12.1993 7.90713 12.1804 8.40415C12.1548 9.08273 12.1821 9.74438 12.1804 10.433C12.1797 10.7465 12.1672 11.0515 12.541 11.026C12.8913 11.0019 12.9269 10.7008 13.0941 10.4518C13.3268 10.1049 13.5402 9.75344 13.7768 9.40772C14.0961 8.94072 14.1926 8.41582 14.4925 7.93739C14.6002 7.76608 14.6924 7.392 14.858 7.25691C14.9831 7.15446 15.2216 7.1983 15.373 7.1983H15.7335C16.0095 7.20163 16.2909 7.20568 16.5743 7.21593C16.9828 7.23046 17.4403 7.13968 17.8453 7.19806C19.5926 7.45038 15.6487 11.274 15.8541 11.9562C15.996 12.4275 16.8955 12.955 17.2202 13.3412C17.6525 13.8547 18.9791 14.878 17.9471 15.539Z" fill="#5A3F98"/>
</svg>
