<svg width="22" height="23" viewBox="0 0 22 23" fill="none" xmlns="http://www.w3.org/2000/svg">
<path d="M21.9411 9.20662C21.9383 7.81849 22.039 6.40368 21.9831 5.00841C21.9558 4.31768 21.9411 0.000954346 21.9411 0.000954346C21.2482 0.000954346 19.4647 -0.0102441 18.7835 0.04408C16.9961 0.186324 0.0475396 0.0347878 0.0475396 0.0347878C0.0468409 0.944717 0.0475396 5.01317 0.0475396 5.92692C0.0475396 7.8335 0.0191244 9.66527 0.00514978 11.5578C-0.0186071 14.8332 0.0475396 19.0141 0.0475396 22.2245L0.417635 22.2438C1.26333 22.1418 2.71331 22.2393 3.51266 22.2245C4.91059 22.1985 11.0483 22.3329 12.6684 22.2676C14.1388 22.2085 21.2536 22.2895 21.8566 22.2717C21.8566 22.2717 21.9586 12.7892 21.9414 12.1594C21.9139 11.1628 21.943 10.1923 21.9411 9.20662ZM17.9471 15.5387C17.4221 15.8749 15.2882 15.975 14.7713 15.5909C14.4881 15.3803 14.2294 15.1167 13.9829 14.8661C13.8108 14.6907 13.6154 14.6057 13.4677 14.4153C13.3466 14.2595 13.2642 14.0758 13.1368 13.9223C12.9223 13.6643 12.592 13.4449 12.3304 13.7601C11.9373 14.234 12.3926 15.1656 11.8676 15.5197C11.6918 15.6385 11.5141 15.6729 11.2942 15.6559L10.8072 15.6788C10.5212 15.6845 10.0677 15.6872 9.74233 15.6269C9.37945 15.5599 9.07946 15.3572 8.75129 15.208C8.12802 14.9252 7.5341 14.5402 7.08272 14.0064C5.85318 12.553 4.20137 10.554 3.5597 8.72652C3.42811 8.35101 3.07944 7.6081 3.40971 7.2855C3.85899 6.95169 6.06466 6.85734 6.4089 7.37389C6.54865 7.58356 6.63692 7.89116 6.73545 8.12895C6.85842 8.42559 6.92504 8.70507 7.11765 8.96788C7.28814 9.20066 7.41368 9.43487 7.54574 9.69029C7.69341 9.97669 7.83316 10.2516 8.01296 10.5156C8.13501 10.6951 8.45782 11.0517 8.66162 11.0784C9.15958 11.1435 9.12861 9.90568 9.09181 9.60356C9.0564 9.31241 9.04732 9.00338 9.05664 8.70817C9.06456 8.45632 9.08692 8.10131 8.94111 7.89545C8.70331 7.55998 8.17367 7.8111 8.13221 7.36031C8.22002 7.23212 8.20115 7.11871 8.78553 6.9219C9.24553 6.76703 9.54272 6.77204 9.84621 6.79682C10.4646 6.84757 11.1207 6.67625 11.7172 6.8814C12.2876 7.07797 12.1993 7.90689 12.1804 8.40391C12.1548 9.08248 12.1821 9.74414 12.1804 10.4327C12.1797 10.7463 12.1672 11.0513 12.541 11.0258C12.8913 11.0017 12.9269 10.7005 13.0941 10.4515C13.3268 10.1046 13.5402 9.75319 13.7768 9.40747C14.0961 8.94048 14.1926 8.41558 14.4925 7.93715C14.6002 7.76583 14.6924 7.39176 14.858 7.25667C14.9831 7.15421 15.2216 7.19805 15.373 7.19805H15.7335C16.0095 7.20139 16.2909 7.20544 16.5743 7.21568C16.9828 7.23022 17.4403 7.13944 17.8453 7.19781C19.5926 7.45014 15.6487 11.2738 15.8541 11.9559C15.996 12.4272 16.8955 12.9547 17.2202 13.341C17.6525 13.8544 18.9791 14.8778 17.9471 15.5387Z"  fill="#333235"/>
</svg>
